<?xml version="1.0" standalone="no"?>
<!DOCTYPE svg PUBLIC "-//W3C//DTD SVG 20010904//EN"
 "http://www.w3.org/TR/2001/REC-SVG-20010904/DTD/svg10.dtd">
<svg version="1.0" xmlns="http://www.w3.org/2000/svg"
 width="799.000000pt" height="799.000000pt" viewBox="0 0 799.000000 799.000000"
 preserveAspectRatio="xMidYMid meet">
<metadata>
Created by potrace 1.11, written by Peter Selinger 2001-2013
</metadata>
<g transform="translate(0.000000,799.000000) scale(0.100000,-0.100000)"
fill="#000000" stroke="none">
<path d="M3908 7985 c-2 -2 -23 -5 -48 -8 -25 -4 -55 -9 -67 -12 -13 -3 -33
-7 -45 -10 -40 -8 -182 -67 -210 -86 -14 -11 -28 -19 -31 -19 -3 0 -38 -19
-79 -43 -40 -24 -93 -55 -118 -69 -25 -14 -184 -106 -355 -205 -170 -99 -330
-191 -355 -205 -25 -14 -117 -67 -205 -118 -88 -51 -218 -127 -290 -168 -352
-203 -456 -263 -528 -306 -43 -25 -81 -46 -83 -46 -2 0 -23 -12 -45 -26 -23
-14 -62 -37 -87 -51 -129 -72 -504 -290 -551 -322 -171 -114 -309 -309 -373
-527 l-23 -79 -2 -1665 c-3 -1609 -2 -1668 17 -1752 52 -235 192 -441 392
-576 43 -29 79 -52 82 -52 2 0 49 -26 103 -58 54 -32 105 -61 113 -65 8 -4 29
-15 45 -26 25 -15 229 -133 330 -191 17 -9 65 -38 108 -64 43 -25 81 -46 83
-46 3 0 30 -16 60 -35 30 -19 56 -35 59 -35 3 0 172 -97 455 -262 19 -12 49
-28 65 -38 186 -106 828 -477 1005 -580 279 -164 361 -199 513 -224 75 -12
243 -13 297 -2 14 3 39 8 55 12 95 19 205 68 380 170 116 68 470 273 720 416
66 38 127 73 135 78 135 79 547 316 555 319 5 2 12 7 15 10 3 3 19 13 35 22
17 8 118 67 225 129 107 63 224 130 260 150 203 115 604 349 655 383 76 51
194 170 241 245 56 87 116 224 129 294 3 13 8 34 12 48 13 44 16 3295 3 3379
-45 284 -220 534 -475 675 -27 16 -122 70 -210 121 -88 51 -176 102 -196 113
-20 11 -47 26 -60 34 -13 7 -31 18 -39 24 -8 6 -46 28 -85 49 -38 21 -99 55
-134 76 -34 22 -65 39 -67 39 -3 0 -21 11 -42 23 -20 13 -57 35 -82 49 -25 14
-85 49 -135 78 -49 29 -108 63 -130 75 -22 13 -80 46 -130 75 -49 29 -106 62
-125 73 -19 10 -107 61 -195 112 -88 51 -252 145 -365 210 -113 65 -233 135
-267 156 -34 22 -65 39 -67 39 -3 0 -76 42 -163 93 -217 127 -312 167 -453
192 -35 7 -227 14 -232 10z"/>
</g>
</svg>
